<svg width="24" height="24" viewBox="0 0 24 24" fill="none" xmlns="http://www.w3.org/2000/svg">
<path fill-rule="evenodd" clip-rule="evenodd" d="M4.5 12C4.5 16.1421 7.85787 19.5 12 19.5C16.1421 19.5 19.5 16.1421 19.5 12C19.5 7.85786 16.1421 4.5 12 4.5C7.85786 4.5 4.5 7.85787 4.5 12ZM3 12C3 16.9706 7.02944 21 12 21C16.9706 21 21 16.9706 21 12C21 7.02944 16.9706 3 12 3C7.02944 3 3 7.02944 3 12Z" fill="black"/>
<path fill-rule="evenodd" clip-rule="evenodd" d="M12 12.5354C13.1046 12.5354 14 11.64 14 10.5354C14 9.43087 13.1046 8.53544 12 8.53544C10.8954 8.53544 10 9.43087 10 10.5354C10 11.64 10.8954 12.5354 12 12.5354ZM12 14.0354C13.933 14.0354 15.5 12.4684 15.5 10.5354C15.5 8.60245 13.933 7.03545 12 7.03545C10.067 7.03545 8.5 8.60245 8.5 10.5354C8.5 12.4684 10.067 14.0354 12 14.0354Z" fill="black"/>
<path d="M18.0627 18.6515C17.1211 16.2223 14.7617 14.5 12 14.5C9.23819 14.5 6.8787 16.2224 5.93713 18.6517C5.53341 18.2835 5.16332 17.879 4.83203 17.4435C6.14128 14.8098 8.85928 13 12 13C15.1406 13 17.8585 14.8097 19.1678 17.4432C18.8365 17.8788 18.4665 18.2833 18.0627 18.6515Z" fill="black"/>
</svg>
