<svg width="24" height="24" viewBox="0 0 24 24" fill="none" xmlns="http://www.w3.org/2000/svg">
<path d="M15.318 16.5777L11.9178 14.7892L8.5171 16.5777L9.16619 12.7879L6.41256 10.1081L10.2168 9.55457L11.9178 6.10876L13.6183 9.55458L17.4226 10.1081L14.6697 12.7896L15.318 16.5777ZM11.9169 13.2597C12.1056 13.2594 12.2915 13.3057 12.458 13.3943L13.3458 13.8604L13.1757 12.8678C13.1442 12.6834 13.158 12.4941 13.2158 12.3162C13.2737 12.1384 13.3739 11.9772 13.5079 11.8466L14.2279 11.1451L13.2321 11.0004C13.0474 10.9731 12.872 10.9017 12.7208 10.7921C12.5696 10.6826 12.4471 10.5381 12.3637 10.371L11.9178 9.4671L11.4727 10.3686C11.3898 10.5363 11.2674 10.6814 11.1161 10.7914C10.9647 10.9015 10.789 10.9731 10.6039 11.0003L9.60886 11.1451L10.3269 11.8437C10.4614 11.9744 10.562 12.1359 10.6201 12.3141C10.6782 12.4924 10.692 12.6822 10.6603 12.867L10.4902 13.8604L11.3796 13.3927C11.5452 13.3053 11.7297 13.2596 11.9169 13.2597Z" fill="black"/>
<path d="M11.9178 20.9165C10.1378 20.9165 8.39773 20.3886 6.91772 19.3996C5.4377 18.4107 4.28418 17.0051 3.60302 15.3606C2.92185 13.716 2.74364 11.9065 3.09091 10.1606C3.43819 8.41483 4.29535 6.81121 5.55401 5.55255C6.81267 4.29389 8.4163 3.43672 10.1621 3.08945C11.9079 2.74218 13.7175 2.92039 15.362 3.60155C17.0066 4.28272 18.4122 5.43624 19.4011 6.91625C20.3901 8.39626 20.9179 10.1363 20.918 11.9163C20.9154 14.3025 19.9663 16.5902 18.279 18.2775C16.5917 19.9648 14.304 20.9139 11.9178 20.9165ZM11.9178 4.40257C10.4317 4.40253 8.97906 4.84315 7.74344 5.66871C6.50782 6.49428 5.54476 7.66771 4.97604 9.04061C4.40732 10.4135 4.25848 11.9242 4.54836 13.3817C4.83823 14.8392 5.55379 16.178 6.60455 17.2288C7.65531 18.2797 8.99407 18.9953 10.4515 19.2852C11.909 19.5752 13.4198 19.4264 14.7927 18.8578C16.1656 18.2891 17.3391 17.3261 18.1647 16.0906C18.9904 14.855 19.4311 13.4023 19.4311 11.9163C19.4288 9.92432 18.6365 8.01458 17.228 6.60599C15.8195 5.19741 13.9098 4.40499 11.9178 4.40257Z" fill="black"/>
</svg>
