<svg width="24" height="24" viewBox="0 0 24 24" fill="none" xmlns="http://www.w3.org/2000/svg">
<path fill-rule="evenodd" clip-rule="evenodd" d="M12 3C7.0293 3 3 7.0293 3 12C3 16.9707 7.0293 21 12 21C16.9707 21 21 16.9707 21 12C21 7.0293 16.9707 3 12 3ZM16.9374 17.0724C14.178 19.8318 9.687 19.8318 6.9276 17.0724C4.1682 14.313 4.1673 9.822 6.9276 7.0626C9.687 4.3032 14.178 4.3032 16.9374 7.0626C19.6968 9.8229 19.6968 14.313 16.9374 17.0724Z" fill="black"/>
<path fill-rule="evenodd" clip-rule="evenodd" d="M11.9983 6.98511C9.22898 6.98511 6.98438 9.22971 6.98438 11.999C6.98438 14.7683 9.22898 17.0129 11.9983 17.0129C14.7676 17.0129 17.0122 14.7683 17.0122 11.999C17.0122 9.22971 14.7676 6.98511 11.9983 6.98511ZM11.9614 15.0941C10.2748 15.0941 8.90318 13.7225 8.90318 12.0359C8.90318 10.3493 10.2748 8.97771 11.9614 8.97771C13.648 8.97771 15.0196 10.3493 15.0196 12.0359C15.0196 13.7225 13.6471 15.0941 11.9614 15.0941Z" fill="black"/>
</svg>
